<?xml version="1.0" standalone="no"?>
<!DOCTYPE svg PUBLIC "-//W3C//DTD SVG 20010904//EN"
 "http://www.w3.org/TR/2001/REC-SVG-20010904/DTD/svg10.dtd">
<svg version="1.0" xmlns="http://www.w3.org/2000/svg"
 width="512.000000pt" height="512.000000pt" viewBox="0 0 512.000000 512.000000"
 preserveAspectRatio="xMidYMid meet">
<metadata>
Created by potrace 1.11, written by Peter Selinger 2001-2013
</metadata>
<g transform="translate(0.000000,512.000000) scale(0.100000,-0.100000)"
fill="#000000" stroke="none">
<path d="M2374 5043 c-36 -82 -71 -171 -86 -220 -7 -24 -16 -43 -20 -43 -5 0
-8 -12 -8 -26 0 -15 -13 -53 -30 -86 -16 -32 -30 -65 -30 -73 0 -13 -65 -15
-488 -15 -538 0 -627 -6 -747 -50 -33 -12 -120 -54 -125 -61 -3 -3 -15 -11
-28 -18 -56 -29 -164 -149 -210 -232 -44 -79 -55 -104 -70 -164 -6 -22 -15
-59 -21 -81 -8 -29 -11 -461 -11 -1405 0 -1436 -1 -1413 44 -1539 24 -70 81
-170 131 -230 51 -63 56 -90 26 -166 -11 -27 -33 -87 -51 -134 -30 -82 -57
-148 -87 -218 -21 -48 -14 -68 22 -64 17 2 37 9 45 17 14 12 212 115 454 236
175 88 57 83 1485 74 l1263 -7 67 -23 c73 -24 414 -193 419 -207 2 -4 8 -8 14
-8 6 0 30 -13 55 -30 24 -16 55 -30 69 -30 36 0 32 36 -16 136 -22 47 -40 90
-40 97 0 7 -4 17 -8 22 -18 21 -92 212 -92 237 0 10 20 39 45 65 42 44 46 46
69 33 57 -30 109 30 135 155 28 138 31 272 31 1563 0 1479 -3 1547 -63 1667
-24 49 -44 65 -77 64 -14 -1 -29 -1 -35 0 -5 1 -50 40 -100 89 -87 84 -185
148 -268 174 -18 5 -48 15 -67 21 -23 7 -246 13 -675 16 l-640 6 -37 75 c-43
88 -118 267 -118 280 0 5 -9 25 -20 45 -11 20 -20 42 -20 50 0 13 -45 65 -56
65 -2 0 -16 -26 -30 -57z m-266 -570 c21 -5 23 -10 17 -42 -7 -46 -42 -154
-66 -206 -10 -22 -21 -51 -24 -65 -4 -14 -13 -38 -20 -55 -7 -16 -18 -46 -25
-65 -16 -45 -22 -62 -54 -136 -14 -34 -26 -65 -26 -69 0 -4 -6 -21 -14 -38 -8
-18 -21 -52 -30 -77 -19 -57 -90 -248 -109 -292 -7 -18 -19 -49 -26 -68 -45
-123 -55 -149 -72 -187 -10 -24 -19 -47 -19 -52 0 -5 -18 -53 -40 -107 -22
-54 -40 -105 -40 -114 0 -9 -4 -20 -9 -25 -8 -10 -31 -66 -75 -192 -12 -35
-25 -66 -29 -70 -4 -3 -7 -12 -7 -20 0 -7 -8 -32 -19 -56 -10 -23 -29 -69 -41
-102 -12 -33 -28 -76 -37 -95 -8 -19 -21 -55 -29 -80 -16 -48 -70 -184 -85
-212 -5 -10 -9 -26 -9 -36 0 -10 -4 -22 -9 -28 -5 -5 -19 -38 -31 -74 -12 -36
-26 -69 -31 -74 -5 -6 -9 -18 -9 -28 0 -10 -9 -40 -21 -66 -11 -26 -28 -63
-36 -82 -8 -19 -24 -61 -34 -93 -10 -32 -25 -72 -32 -90 -38 -89 -57 -134 -63
-157 -3 -14 -15 -45 -27 -70 -20 -46 -67 -171 -93 -250 -8 -25 -19 -54 -24
-65 -4 -11 -11 -28 -14 -37 -3 -10 -12 -18 -19 -18 -18 0 -77 65 -77 84 0 8
-3 16 -7 18 -11 4 -49 85 -64 133 -6 22 -15 50 -20 63 -12 30 -12 2740 0 2778
5 16 15 49 22 74 7 25 20 56 29 70 9 14 24 42 34 62 40 88 213 232 322 269 21
7 43 17 49 21 5 4 23 8 40 8 16 0 37 5 45 10 17 11 919 14 958 3z m1704 -4
c106 -21 194 -55 263 -100 70 -47 145 -112 145 -127 0 -4 8 -15 18 -24 58 -55
112 -179 141 -326 15 -75 15 -2563 0 -2646 -23 -131 -68 -243 -123 -311 l-24
-30 -14 35 c-37 87 -43 113 -30 117 6 3 12 13 12 24 0 10 5 19 10 19 6 0 10 9
10 20 0 11 5 20 10 20 6 0 10 6 10 13 0 7 6 19 12 25 7 7 11 28 10 46 -2 19 1
37 7 41 15 9 15 2601 0 2610 -6 4 -9 23 -7 43 2 22 -2 37 -10 40 -6 2 -12 12
-12 23 0 10 -9 24 -20 31 -11 7 -20 20 -20 29 0 9 -6 19 -14 22 -8 3 -20 18
-28 34 -7 15 -23 32 -35 38 -16 7 -21 15 -17 27 4 13 0 18 -15 18 -25 0 -35
-15 -26 -38 12 -28 14 -62 4 -62 -5 0 -9 -45 -9 -100 0 -66 4 -100 11 -100 7
0 9 -16 6 -47 -9 -75 -11 -1863 -3 -1910 5 -29 4 -43 -3 -43 -13 0 -15 -57 -2
-62 5 -2 4 -33 -1 -73 -6 -38 -8 -136 -6 -217 3 -81 1 -152 -3 -159 -8 -14
-56 71 -111 201 -6 14 -19 41 -29 61 -11 20 -19 42 -19 47 0 6 -22 57 -49 114
-26 57 -61 132 -76 168 -15 36 -36 85 -47 110 -27 60 -48 110 -58 135 -4 11
-20 45 -34 76 -14 31 -26 59 -26 63 0 3 -17 43 -39 89 -21 45 -51 111 -66 147
-15 36 -36 84 -46 107 -11 24 -19 45 -19 48 0 2 -11 28 -24 57 -35 77 -60 134
-96 218 -18 41 -43 99 -56 128 -13 29 -24 57 -24 62 0 6 -4 18 -9 28 -35 69
-51 105 -51 114 0 5 -13 37 -29 71 -38 80 -71 155 -71 162 0 2 -13 34 -30 70
-16 36 -30 69 -30 73 0 5 -9 27 -20 50 -11 22 -20 47 -20 55 0 7 -4 17 -9 23
-5 5 -26 58 -45 117 -20 60 -46 125 -57 145 -54 99 -89 170 -89 183 0 5 -13
38 -30 73 -16 36 -32 77 -36 91 l-6 25 525 0 c336 0 545 -4 579 -11z m-1120
-3369 c79 -39 157 -84 173 -99 17 -16 36 -26 42 -24 27 10 88 -17 545 -240 70
-34 127 -65 128 -69 1 -17 -172 -20 -761 -13 -349 4 -699 6 -779 4 -276 -7
-543 -4 -546 6 -1 6 127 74 284 153 158 79 384 192 502 253 162 82 222 108
242 105 14 -3 91 -37 170 -76z"/>
</g>
</svg>
